<svg xmlns="http://www.w3.org/2000/svg" width="375" height="55" viewBox="0 145 375 55" version="1.0"><defs><g/></defs><g fill="#6d28d9" fill-opacity="1"><g transform="translate(6.328129, 187.090929)"><g><path d="M 17.40625 -3.734375 L 1.25 -11.8125 L 1.25 -14.296875 L 17.40625 -22.375 L 18.640625 -19.890625 L 18.640625 -19.265625 L 6.21875 -13.046875 L 18.640625 -6.84375 L 18.640625 -6.21875 Z M 17.40625 -3.734375 "/></g></g></g><g fill="#6d28d9" fill-opacity="1"><g transform="translate(31.182863, 187.090929)"><g><path d="M 0 4.96875 L -2.484375 3.734375 L 16.78125 -34.796875 L 17.40625 -34.796875 L 19.890625 -33.5625 L 0.625 4.96875 Z M 0 4.96875 "/></g></g></g><g fill="#6d28d9" fill-opacity="1"><g transform="translate(56.037598, 187.090929)"><g><path d="M 1.25 -3.734375 L 0 -6.21875 L 0 -6.84375 L 12.421875 -13.046875 L 0 -19.265625 L 0 -19.890625 L 1.25 -22.375 L 17.40625 -14.296875 L 17.40625 -11.8125 Z M 1.25 -3.734375 "/></g></g></g><g fill="#6d28d9" fill-opacity="1"><g transform="translate(80.892332, 187.090929)"><g/></g></g><g fill="#6d28d9" fill-opacity="1"><g transform="translate(105.747068, 187.090929)"><g><path d="M 14.796875 1.035156 C 17.660156 1.035156 20.046875 -1.191406 20.046875 -4.453125 C 20.046875 -7.714844 17.660156 -10.101562 14.796875 -10.101562 C 11.851562 -10.101562 9.464844 -7.714844 9.464844 -4.453125 C 9.464844 -1.191406 11.851562 1.035156 14.796875 1.035156 Z M 44.464844 1.035156 C 47.328125 1.035156 49.714844 -1.191406 49.714844 -4.453125 C 49.714844 -7.714844 47.328125 -10.101562 44.464844 -10.101562 C 41.523438 -10.101562 39.136719 -7.714844 39.136719 -4.453125 C 39.136719 -1.191406 41.523438 1.035156 44.464844 1.035156 Z M 74.136719 1.035156 C 77 1.035156 79.386719 -1.191406 79.386719 -4.453125 C 79.386719 -7.714844 77 -10.101562 74.136719 -10.101562 C 71.273438 -10.101562 68.886719 -7.714844 68.886719 -4.453125 C 68.886719 -1.191406 71.273438 1.035156 74.136719 1.035156 Z M 74.136719 1.035156 "/></g></g></g><g fill="#6d28d9" fill-opacity="1"><g transform="translate(194.667404, 187.090929)"><g/></g></g><g fill="#6d28d9" fill-opacity="1"><g transform="translate(219.522139, 187.090929)"><g><path d="M 11.1875 -18.640625 L 14.921875 -22.375 L 14.921875 -26.09375 L 11.1875 -29.828125 L 3.734375 -29.828125 L 3.734375 -18.640625 Z M 0 0 L 0 -33.5625 L 12.421875 -33.5625 L 18.640625 -27.34375 L 18.640625 -21.125 L 12.421875 -14.921875 L 11.8125 -14.921875 L 18.640625 -1.25 L 16.15625 0 L 15.53125 0 L 8.078125 -14.921875 L 3.734375 -14.921875 L 3.734375 0 Z M 0 0 "/></g></g></g><g fill="#6d28d9" fill-opacity="1"><g transform="translate(244.376873, 187.090929)"><g><path d="M 0 0 L 0 -33.5625 L 18.640625 -33.5625 L 18.640625 -29.828125 L 3.734375 -29.828125 L 3.734375 -18.640625 L 14.921875 -18.640625 L 14.921875 -14.921875 L 3.734375 -14.921875 L 3.734375 -3.734375 L 18.640625 -3.734375 L 18.640625 0 Z M 0 0 "/></g></g></g><g fill="#6d28d9" fill-opacity="1"><g transform="translate(269.231607, 187.090929)"><g><path d="M 14.921875 -14.921875 L 14.921875 -17.40625 L 9.328125 -28.59375 L 3.734375 -17.40625 L 3.734375 -14.921875 Z M 0 0 L 0 -17.40625 L 8.078125 -33.5625 L 10.5625 -33.5625 L 18.640625 -17.40625 L 18.640625 0 L 14.921875 0 L 14.921875 -11.1875 L 3.734375 -11.1875 L 3.734375 0 Z M 0 0 "/></g></g></g><g fill="#6d28d9" fill-opacity="1"><g transform="translate(294.086342, 187.090929)"><g><path d="M 11.1875 -3.734375 L 14.921875 -7.453125 L 14.921875 -26.09375 L 11.1875 -29.828125 L 3.734375 -29.828125 L 3.734375 -3.734375 Z M 0 0 L 0 -33.5625 L 12.421875 -33.5625 L 18.640625 -27.34375 L 18.640625 -6.21875 L 12.421875 0 Z M 0 0 "/></g></g></g><g fill="#6d28d9" fill-opacity="1"><g transform="translate(318.941076, 187.090929)"><g><path d="M 0 0 L 0 -33.5625 L 3.109375 -33.5625 L 9.328125 -21.125 L 15.53125 -33.5625 L 18.640625 -33.5625 L 18.640625 0 L 14.921875 0 L 14.921875 -24.859375 L 10.5625 -16.15625 L 8.078125 -16.15625 L 3.734375 -24.859375 L 3.734375 0 Z M 0 0 "/></g></g></g><g fill="#6d28d9" fill-opacity="1"><g transform="translate(343.79581, 187.090929)"><g><path d="M 0 0 L 0 -33.5625 L 18.640625 -33.5625 L 18.640625 -29.828125 L 3.734375 -29.828125 L 3.734375 -18.640625 L 14.921875 -18.640625 L 14.921875 -14.921875 L 3.734375 -14.921875 L 3.734375 -3.734375 L 18.640625 -3.734375 L 18.640625 0 Z M 0 0 "/></g></g></g></svg>